<svg width="11" height="14" viewBox="0 0 11 14" fill="none" xmlns="http://www.w3.org/2000/svg">
<path d="M9.15061 4.67721C9.01848 3.516 8.0076 3.1436 6.73798 3.05466L6.70979 1.44126L5.72772 1.4585L5.7552 3.02938C5.49703 3.03392 5.23322 3.04363 4.97112 3.05344L4.94366 1.47215L3.96212 1.48926L3.98992 3.10221C3.77737 3.11026 3.56863 3.11785 3.36504 3.12154L3.36482 3.11654L2.0103 3.13972L2.02887 4.1886C2.02887 4.1886 2.75384 4.16211 2.74202 4.17568C3.13981 4.16886 3.27331 4.39753 3.31445 4.59615L3.34662 6.43416C3.37407 6.43383 3.4099 6.43435 3.45054 6.43919C3.41783 6.43981 3.3828 6.4402 3.3468 6.44114L3.3915 9.01601C3.37623 9.1415 3.30612 9.34239 3.02821 9.34773C3.04097 9.35864 2.31432 9.36 2.31432 9.36L2.13967 10.5362L3.41769 10.5139C3.65552 10.51 3.8896 10.51 4.11936 10.5074L4.14826 12.1392L5.12927 12.1222L5.10106 10.5077C5.37052 10.5086 5.63123 10.5062 5.88571 10.5015L5.91333 12.1086L6.8954 12.0913L6.86727 10.4624C8.51667 10.3389 9.665 9.90277 9.78143 8.34981C9.87549 7.09933 9.27849 6.55252 8.33733 6.34382C8.90165 6.04394 9.24872 5.52688 9.15061 4.67721ZM7.83754 8.19031C7.85937 9.40974 5.76896 9.30748 5.1034 9.31973L5.06591 7.15772C5.73168 7.14626 7.81542 6.91841 7.83754 8.19031ZM7.32755 5.14799C7.34661 6.25744 5.60299 6.15837 5.0486 6.16809L5.01443 4.20725C5.56882 4.19753 7.30723 3.99083 7.32755 5.14799Z" fill="#F7931A"/>
</svg>
