<svg width="136" height="40" viewBox="0 0 136 40" fill="none" xmlns="http://www.w3.org/2000/svg">
<path d="M99.8511 25.6739V14.0032H104.771V15.3762C105.458 14.3464 106.762 13.7744 108.112 13.7744C110.629 13.7744 112.002 15.2847 112.002 18.0536V25.6739H107.082V18.8088C107.082 17.8477 106.67 17.4358 106.098 17.4358H106.007C105.275 17.4358 104.771 18.0765 104.771 19.0605V25.6739H99.8511Z" fill="#EDFFF7"/>
<path d="M92.9837 25.9027C89.185 25.9027 86.8508 23.4313 86.8508 19.8385C86.8508 16.2229 89.3223 13.7744 92.9837 13.7744C96.5993 13.7744 99.1623 16.2229 99.1623 19.8385C99.1623 20.3191 99.1394 20.6624 99.0936 20.9827H91.5649C91.5878 22.2413 92.0683 22.9278 92.915 22.9278H92.9837C93.6244 22.9278 94.1507 22.5159 94.3109 21.7837H98.9106C98.3156 24.278 95.9586 25.9027 92.9837 25.9027ZM94.3796 18.3511C94.2194 17.2069 93.7617 16.7264 93.0523 16.7264H92.9608C92.2743 16.7264 91.7479 17.2069 91.6564 18.3511H94.3796Z" fill="#EDFFF7"/>
<path d="M73.3793 30.2506V14.0032H78.2993V15.1474C79.0544 14.1863 80.1986 13.7744 81.3428 13.7744C84.3406 13.7744 86.5603 16.0627 86.5603 19.7928C86.5603 23.6144 84.3406 25.9027 81.3428 25.9027C80.1986 25.9027 79.1002 25.4451 78.2993 24.4382V30.2506H73.3793ZM79.9927 22.4702C81.0911 22.4702 81.6632 21.4633 81.6632 19.7928C81.6632 18.2596 81.0911 17.2298 79.9927 17.2298H79.8783C78.8256 17.2298 78.2993 18.2596 78.2993 19.8385C78.2993 21.4633 78.8256 22.4702 79.8783 22.4702H79.9927Z" fill="#EDFFF7"/>
<path d="M67.3169 25.6739V9.65527H72.2369V25.6739H67.3169Z" fill="#EDFFF7"/>
<path d="M61.2544 25.6739V9.65527H66.1744V25.6739H61.2544Z" fill="#EDFFF7"/>
<path d="M51.8402 25.9027C49.323 25.9027 47.95 24.3924 47.95 21.6235V14.0032H52.87V20.8683C52.87 21.8294 53.2819 22.2413 53.854 22.2413H53.9455C54.6778 22.2413 55.1812 21.6006 55.1812 20.6166V14.0032H60.1012V25.6739H55.1812V24.3009C54.4947 25.3306 53.1903 25.9027 51.8402 25.9027Z" fill="#EDFFF7"/>
<path d="M32.8438 25.6739V9.65527H41.7455C44.995 9.65527 46.9172 11.5089 46.9172 13.7972C46.9172 15.7423 45.7273 17.0925 43.7822 17.5502C45.8417 17.8934 47.2605 19.2436 47.2605 21.326C47.2605 23.8203 45.1552 25.6739 41.9972 25.6739H32.8438ZM40.8531 21.8981C41.7226 21.8981 42.2032 21.4633 42.2032 20.6166C42.2032 19.8157 41.7226 19.4037 40.8531 19.4037H37.7638V21.8981H40.8531ZM40.67 15.7423C41.4023 15.7423 41.8599 15.3076 41.8599 14.5982C41.8599 13.8659 41.4023 13.4311 40.67 13.4311H37.7638V15.7423H40.67Z" fill="#EDFFF7"/>
<g clip-path="url(#clip0_5422_2063)">
<path d="M12.7944 18.0292C13.6199 19.8853 14.9776 22.325 17.0434 24.4097C16.1515 24.5322 15.1269 24.605 13.9504 24.605C3.33417 24.605 0 12.647 0 8.29243C0 7.09496 0.28327 5.6792 0.28327 5.6792C3.2474 12.1835 6.77935 16.4985 12.1934 17.9104C12.3899 17.9615 12.5889 18.0011 12.7944 18.0292Z" fill="#EDFFF7"/>
<path d="M28.6129 21.3994C28.6129 23.8952 26.1605 25.8395 23.3954 25.8395C19.667 25.8395 16.847 23.4203 14.0921 17.9475C12.82 15.4198 11.6359 10.7461 11.6359 7.84563C11.6359 5.93071 11.9842 5.00006 11.9842 5.00006C13.7553 9.24225 14.5974 10.5993 17.4174 14.3576C19.6465 17.3283 21.9216 19.1794 24.9534 20.3807C25.0197 20.4075 25.0874 20.4126 25.1537 20.4126C25.4217 20.4126 25.6718 20.2428 25.7598 19.9747C25.8708 19.6403 25.6884 19.279 25.3541 19.1679C23.9109 18.6905 22.5813 17.7943 21.4699 16.8419C22.1258 16.7806 22.8633 16.7449 23.5677 16.7449C26.505 16.7449 28.6129 18.6968 28.6129 21.3994Z" fill="#EDFFF7"/>
</g>
<path d="M115.85 26V19H118.92C120.25 19 121.17 19.79 121.17 21.17C121.17 22.54 120.25 23.34 118.92 23.34H117.05V26H115.85ZM118.77 22.27C119.55 22.27 119.97 21.85 119.97 21.17C119.97 20.48 119.55 20.07 118.77 20.07H117.05V22.27H118.77ZM122.344 26V19H125.494C126.734 19 127.664 19.8 127.664 20.9C127.664 21.79 127.224 22.41 126.494 22.67C127.264 22.67 127.564 23 127.564 23.66V26H126.364V23.96C126.364 23.44 126.214 23.29 125.694 23.29H123.544V26H122.344ZM125.194 22.23C126.024 22.23 126.464 21.78 126.464 21.11C126.464 20.42 126.024 20.07 125.194 20.07H123.544V22.23H125.194ZM132.121 26.1C130.171 26.1 128.771 24.75 128.771 22.5C128.771 20.25 130.171 18.9 132.121 18.9C134.081 18.9 135.481 20.25 135.481 22.5C135.481 24.75 134.081 26.1 132.121 26.1ZM132.171 25.03C133.441 25.03 134.281 24.09 134.281 22.5C134.281 20.91 133.441 19.97 132.171 19.97H132.071C130.801 19.97 129.971 20.91 129.971 22.5C129.971 24.09 130.801 25.03 132.071 25.03H132.171Z" fill="white"/>
<defs>
<clipPath id="clip0_5422_2063">
<rect width="28.6129" height="20.8394" fill="white" transform="translate(0 5.00006)"/>
</clipPath>
</defs>
</svg>
