<svg width="17" height="16" viewBox="0 0 17 16" fill="none" xmlns="http://www.w3.org/2000/svg">
<rect x="0.333374" width="16" height="16" rx="8" fill="black"/>
<path fill-rule="evenodd" clip-rule="evenodd" d="M5.27001 10.2051C5.30013 10.172 5.33681 10.1455 5.37773 10.1274C5.41861 10.1093 5.46289 10.0999 5.50761 10.0999L12.8388 10.1059C12.8701 10.106 12.9006 10.1151 12.9267 10.1322C12.9529 10.1493 12.9735 10.1736 12.986 10.2021C12.9986 10.2307 13.0026 10.2623 12.9976 10.2931C12.9925 10.3239 12.9787 10.3526 12.9576 10.3757L11.3964 12.0947C11.3663 12.1278 11.3296 12.1543 11.2887 12.1724C11.2477 12.1905 11.2034 12.1999 11.1586 12.1999L3.82762 12.1939C3.7964 12.1938 3.76587 12.1847 3.73974 12.1676C3.71361 12.1505 3.693 12.1262 3.68042 12.0977C3.66784 12.0691 3.66382 12.0375 3.66886 12.0067C3.6739 11.9759 3.68779 11.9472 3.70882 11.9241L5.27001 10.2051ZM12.9576 8.7741C12.9787 8.79718 12.9925 8.82586 12.9976 8.85666C13.0026 8.88746 12.9986 8.9191 12.986 8.94766C12.9735 8.97622 12.9529 9.00054 12.9267 9.01762C12.9006 9.0347 12.8701 9.04382 12.8388 9.0439L5.50781 9.0499C5.46305 9.0499 5.41877 9.04054 5.37781 9.02242C5.33685 9.0043 5.30013 8.97782 5.27001 8.9447L3.70882 7.2247C3.68779 7.20162 3.6739 7.17294 3.66886 7.14214C3.66382 7.11134 3.66784 7.0797 3.68042 7.05114C3.693 7.02258 3.71361 6.99826 3.73974 6.98118C3.76587 6.9641 3.7964 6.95498 3.82762 6.9549L11.1588 6.9489C11.2036 6.94894 11.2478 6.9583 11.2887 6.97642C11.3297 6.99454 11.3663 7.02098 11.3964 7.0541L12.9576 8.7741ZM5.27001 3.9051C5.30013 3.87199 5.33681 3.84553 5.37773 3.82741C5.41861 3.8093 5.46289 3.79992 5.50761 3.7999L12.8388 3.8059C12.8701 3.80596 12.9006 3.81509 12.9267 3.83217C12.9529 3.84926 12.9735 3.87356 12.986 3.90213C12.9986 3.93071 13.0026 3.96232 12.9976 3.99313C12.9925 4.02394 12.9787 4.05262 12.9576 4.0757L11.3964 5.7947C11.3663 5.82782 11.3296 5.8543 11.2887 5.87242C11.2477 5.89054 11.2034 5.8999 11.1586 5.8999L3.82762 5.8939C3.7964 5.89382 3.76587 5.8847 3.73974 5.86762C3.71361 5.85054 3.693 5.82622 3.68042 5.79766C3.66784 5.7691 3.66382 5.73746 3.66886 5.70666C3.6739 5.67586 3.68779 5.64718 3.70882 5.6241L5.27001 3.9051Z" fill="url(#paint0_linear_5422_681)"/>
<defs>
<linearGradient id="paint0_linear_5422_681" x1="3.95002" y1="12.3831" x2="12.7164" y2="3.6167" gradientUnits="userSpaceOnUse">
<stop stop-color="#9945FF"/>
<stop offset="0.2" stop-color="#7962E7"/>
<stop offset="1" stop-color="#00D18C"/>
</linearGradient>
</defs>
</svg>
