<svg width="10" height="10" viewBox="0 0 10 10" fill="none" xmlns="http://www.w3.org/2000/svg">
<path fill-rule="evenodd" clip-rule="evenodd" d="M1.71786 7.62524C1.75013 7.58581 1.78943 7.55433 1.83327 7.53276C1.87708 7.51119 1.92452 7.50005 1.97244 7.5L9.82762 7.50714C9.8611 7.50724 9.8938 7.5181 9.92178 7.53843C9.94981 7.55876 9.97189 7.58771 9.98534 7.62171C9.99885 7.65571 10.0031 7.69338 9.99773 7.73005C9.99233 7.76671 9.97746 7.80086 9.95491 7.82833L8.28213 9.87476C8.24986 9.91419 8.21051 9.94571 8.16667 9.96729C8.12278 9.98886 8.07534 10 8.02733 10L0.172371 9.99286C0.13892 9.99276 0.106206 9.9819 0.0782059 9.96157C0.0502061 9.94124 0.0281252 9.91229 0.014646 9.87829C0.00116688 9.84429 -0.00313629 9.80662 0.00226822 9.76995C0.00766845 9.73329 0.0225448 9.69914 0.0450801 9.67167L1.71786 7.62524ZM9.95491 5.92167C9.97746 5.94914 9.99233 5.98329 9.99773 6.01995C10.0031 6.05662 9.99885 6.09429 9.98534 6.12829C9.97189 6.16229 9.94981 6.19124 9.92178 6.21157C9.8938 6.2319 9.8611 6.24276 9.82762 6.24286L1.97265 6.25C1.92469 6.25 1.87725 6.23886 1.83336 6.21729C1.78947 6.19571 1.75013 6.16419 1.71786 6.12476L0.0450801 4.07714C0.0225448 4.04967 0.00766845 4.01552 0.00226822 3.97886C-0.00313629 3.94219 0.00116688 3.90452 0.014646 3.87052C0.0281252 3.83652 0.0502061 3.80757 0.0782059 3.78724C0.106206 3.7669 0.13892 3.75605 0.172371 3.75595L8.02755 3.74881C8.07551 3.74886 8.12291 3.76 8.16675 3.78157C8.2106 3.80314 8.2499 3.83462 8.28213 3.87405L9.95491 5.92167ZM1.71786 0.125238C1.75013 0.0858237 1.78943 0.0543237 1.83327 0.032757C1.87708 0.0111951 1.92452 3.33333e-05 1.97244 0L9.82762 0.00714293C9.8611 0.00721912 9.8938 0.0180857 9.92178 0.0384238C9.94981 0.0587619 9.97189 0.0876953 9.98534 0.12171C9.99885 0.155729 10.0031 0.193362 9.99773 0.230038C9.99233 0.266714 9.97746 0.300857 9.95491 0.328333L8.28213 2.37476C8.24986 2.41419 8.21051 2.44571 8.16667 2.46729C8.12278 2.48886 8.07534 2.5 8.02733 2.5L0.172371 2.49286C0.13892 2.49276 0.106206 2.4819 0.0782059 2.46157C0.0502061 2.44124 0.0281252 2.41229 0.014646 2.37829C0.00116688 2.34429 -0.00313629 2.30662 0.00226822 2.26995C0.00766845 2.23329 0.0225448 2.19914 0.0450801 2.17167L1.71786 0.125238Z" fill="url(#paint0_linear_5422_669)"/>
<defs>
<linearGradient id="paint0_linear_5422_669" x1="0.303519" y1="10.2181" x2="10.6821" y2="0.876983" gradientUnits="userSpaceOnUse">
<stop stop-color="#9945FF"/>
<stop offset="0.2" stop-color="#7962E7"/>
<stop offset="1" stop-color="#00D18C"/>
</linearGradient>
</defs>
</svg>
