<svg width="16" height="16" viewBox="0 0 16 16" fill="none" xmlns="http://www.w3.org/2000/svg">
<rect width="16" height="16" rx="8" fill="#2775CA"/>
<path d="M10.2 9.26665C10.2 8.10001 9.50004 7.70001 8.10004 7.53337C7.10004 7.40001 6.90004 7.13337 6.90004 6.66665C6.90004 6.19993 7.2334 5.90001 7.90004 5.90001C8.50004 5.90001 8.8334 6.10001 9.00004 6.60001C9.0334 6.70001 9.1334 6.76665 9.2334 6.76665H9.76668C9.90004 6.76665 10 6.66665 10 6.53337V6.50001C9.86668 5.76665 9.26668 5.20001 8.50004 5.13337V4.33337C8.50004 4.20001 8.40004 4.10001 8.2334 4.06665H7.7334C7.60004 4.06665 7.50004 4.16665 7.46668 4.33337V5.10001C6.46668 5.23337 5.8334 5.90001 5.8334 6.73337C5.8334 7.83337 6.50004 8.26665 7.90004 8.43337C8.8334 8.60001 9.1334 8.80001 9.1334 9.33337C9.1334 9.86673 8.66668 10.2334 8.0334 10.2334C7.16668 10.2334 6.86668 9.86665 6.76668 9.36665C6.7334 9.23337 6.6334 9.16665 6.5334 9.16665H5.96668C5.8334 9.16665 5.7334 9.26665 5.7334 9.40001V9.43337C5.86668 10.2667 6.40004 10.8667 7.50004 11.0334V11.8334C7.50004 11.9667 7.60004 12.0667 7.76668 12.1H8.26668C8.40004 12.1 8.50004 12 8.5334 11.8334V11.0334C9.5334 10.8667 10.2 10.1667 10.2 9.26665Z" fill="white"/>
<path d="M6.29992 12.7667C3.69992 11.8334 2.36656 8.93338 3.33328 6.36665C3.83328 4.96665 4.93328 3.90001 6.29992 3.40001C6.43328 3.33337 6.49992 3.23337 6.49992 3.06665V2.60001C6.49992 2.46665 6.43328 2.36665 6.29992 2.33337C6.26656 2.33337 6.19992 2.33337 6.16656 2.36665C2.99992 3.36665 1.26656 6.73337 2.26656 9.90001C2.86656 11.7667 4.29992 13.2 6.16656 13.8C6.29992 13.8667 6.43328 13.8 6.46656 13.6667C6.49992 13.6334 6.49992 13.6 6.49992 13.5334V13.0667C6.49992 12.9667 6.39992 12.8334 6.29992 12.7667ZM9.83328 2.36665C9.69992 2.30001 9.56656 2.36665 9.53328 2.50001C9.49992 2.53337 9.49992 2.56665 9.49992 2.63337V3.10001C9.49992 3.23337 9.59992 3.36665 9.69992 3.43337C12.2999 4.36665 13.6333 7.26665 12.6666 9.83338C12.1666 11.2334 11.0666 12.3 9.69992 12.8C9.56656 12.8667 9.49992 12.9667 9.49992 13.1334V13.6C9.49992 13.7334 9.56656 13.8334 9.69992 13.8667C9.73328 13.8667 9.79992 13.8667 9.83328 13.8334C12.9999 12.8334 14.7333 9.46665 13.7333 6.30001C13.1333 4.40001 11.6666 2.96665 9.83328 2.36665Z" fill="white"/>
<rect x="8" y="8" width="8" height="8" rx="4" fill="#072723"/>
<g clip-path="url(#clip0_5422_2145)">
<path d="M14.8332 11.9881C14.8332 13.8615 13.6867 14.4627 13.0826 13.9274C12.5854 13.491 12.4375 12.5687 11.6896 12.474C10.7403 12.3546 10.6582 13.6186 10.0336 13.6186C9.30622 13.6186 9.1665 12.5604 9.1665 12.0169C9.1665 11.4611 9.32266 10.7035 9.94315 10.7035C10.6664 10.7035 10.7075 11.7864 11.6115 11.7287C12.5114 11.667 12.5279 10.5388 13.1114 10.057C13.6209 9.64118 14.8332 10.09 14.8332 11.9881Z" fill="#F6FEFD"/>
</g>
<defs>
<clipPath id="clip0_5422_2145">
<rect width="5.66667" height="5.66667" fill="white" transform="translate(9.16675 9.16669)"/>
</clipPath>
</defs>
</svg>
