<svg width="17" height="16" viewBox="0 0 17 16" fill="none" xmlns="http://www.w3.org/2000/svg">
<rect x="0.333374" width="16" height="16" rx="8" fill="#2775CA"/>
<path d="M10.5334 9.26665C10.5334 8.10001 9.83341 7.70001 8.43341 7.53337C7.43341 7.40001 7.23341 7.13337 7.23341 6.66665C7.23341 6.19993 7.56677 5.90001 8.23341 5.90001C8.83341 5.90001 9.16677 6.10001 9.33341 6.60001C9.36677 6.70001 9.46677 6.76665 9.56677 6.76665H10.1001C10.2334 6.76665 10.3334 6.66665 10.3334 6.53337V6.50001C10.2001 5.76665 9.60005 5.20001 8.83341 5.13337V4.33337C8.83341 4.20001 8.73341 4.10001 8.56677 4.06665H8.06677C7.93341 4.06665 7.83341 4.16665 7.80005 4.33337V5.10001C6.80005 5.23337 6.16677 5.90001 6.16677 6.73337C6.16677 7.83337 6.83341 8.26665 8.23341 8.43337C9.16677 8.60001 9.46677 8.80001 9.46677 9.33337C9.46677 9.86673 9.00005 10.2334 8.36677 10.2334C7.50005 10.2334 7.20005 9.86665 7.10005 9.36665C7.06677 9.23337 6.96677 9.16665 6.86677 9.16665H6.30005C6.16677 9.16665 6.06677 9.26665 6.06677 9.40001V9.43337C6.20005 10.2667 6.73341 10.8667 7.83341 11.0334V11.8334C7.83341 11.9667 7.93341 12.0667 8.10005 12.1H8.60005C8.73341 12.1 8.83341 12 8.86677 11.8334V11.0334C9.86677 10.8667 10.5334 10.1667 10.5334 9.26665Z" fill="white"/>
<path d="M6.63341 12.7667C4.03341 11.8334 2.70005 8.93337 3.66677 6.36665C4.16677 4.96665 5.26677 3.90001 6.63341 3.40001C6.76677 3.33337 6.83341 3.23337 6.83341 3.06665V2.60001C6.83341 2.46665 6.76677 2.36665 6.63341 2.33337C6.60005 2.33337 6.53341 2.33337 6.50005 2.36665C3.33341 3.36665 1.60005 6.73337 2.60005 9.90001C3.20005 11.7667 4.63341 13.2 6.50005 13.8C6.63341 13.8667 6.76677 13.8 6.80005 13.6667C6.83341 13.6334 6.83341 13.6 6.83341 13.5334V13.0667C6.83341 12.9667 6.73341 12.8334 6.63341 12.7667ZM10.1668 2.36665C10.0334 2.30001 9.90005 2.36665 9.86677 2.50001C9.83341 2.53337 9.83341 2.56665 9.83341 2.63337V3.10001C9.83341 3.23337 9.93341 3.36665 10.0334 3.43337C12.6334 4.36665 13.9668 7.26665 13.0001 9.83337C12.5001 11.2334 11.4001 12.3 10.0334 12.8C9.90005 12.8667 9.83341 12.9667 9.83341 13.1334V13.6C9.83341 13.7334 9.90005 13.8334 10.0334 13.8667C10.0668 13.8667 10.1334 13.8667 10.1668 13.8334C13.3334 12.8334 15.0668 9.46665 14.0668 6.30001C13.4668 4.40001 12.0001 2.96665 10.1668 2.36665Z" fill="white"/>
<rect x="8.33337" y="8" width="8" height="8" rx="4" fill="black"/>
<path fill-rule="evenodd" clip-rule="evenodd" d="M10.8016 13.1026C10.8167 13.086 10.835 13.0728 10.8555 13.0637C10.8759 13.0547 10.8981 13.05 10.9204 13.05L14.586 13.053C14.6017 13.053 14.6169 13.0576 14.63 13.0661C14.6431 13.0746 14.6534 13.0868 14.6596 13.1011C14.6659 13.1154 14.6679 13.1312 14.6654 13.1466C14.6629 13.162 14.656 13.1763 14.6454 13.1879L13.8648 14.0474C13.8498 14.0639 13.8314 14.0772 13.811 14.0862C13.7905 14.0953 13.7683 14.1 13.7459 14.1L10.0804 14.097C10.0648 14.0969 10.0496 14.0924 10.0365 14.0838C10.0234 14.0753 10.0131 14.0631 10.0068 14.0488C10.0005 14.0346 9.99854 14.0187 10.0011 14.0033C10.0036 13.9879 10.0105 13.9736 10.021 13.9621L10.8016 13.1026ZM14.6454 12.3871C14.656 12.3986 14.6629 12.4129 14.6654 12.4283C14.6679 12.4437 14.6659 12.4596 14.6596 12.4738C14.6534 12.4881 14.6431 12.5003 14.63 12.5088C14.6169 12.5174 14.6017 12.5219 14.586 12.522L10.9205 12.525C10.8982 12.525 10.876 12.5203 10.8555 12.5112C10.8351 12.5022 10.8167 12.4889 10.8016 12.4724L10.021 11.6124C10.0105 11.6008 10.0036 11.5865 10.0011 11.5711C9.99854 11.5557 10.0005 11.5399 10.0068 11.5256C10.0131 11.5113 10.0234 11.4991 10.0365 11.4906C10.0496 11.4821 10.0648 11.4775 10.0804 11.4775L13.746 11.4745C13.7684 11.4745 13.7905 11.4792 13.811 11.4882C13.8315 11.4973 13.8498 11.5105 13.8648 11.5271L14.6454 12.3871ZM10.8016 9.95256C10.8167 9.93601 10.835 9.92278 10.8555 9.91372C10.8759 9.90467 10.8981 9.89998 10.9204 9.89996L14.586 9.90296C14.6017 9.903 14.6169 9.90756 14.63 9.9161C14.6431 9.92464 14.6534 9.9368 14.6596 9.95108C14.6659 9.96537 14.6679 9.98118 14.6654 9.99658C14.6629 10.012 14.656 10.0263 14.6454 10.0379L13.8648 10.8974C13.8498 10.9139 13.8314 10.9272 13.811 10.9362C13.7905 10.9453 13.7683 10.95 13.7459 10.95L10.0804 10.947C10.0648 10.9469 10.0496 10.9424 10.0365 10.9338C10.0234 10.9253 10.0131 10.9131 10.0068 10.8988C10.0005 10.8846 9.99854 10.8687 10.0011 10.8533C10.0036 10.8379 10.0105 10.8236 10.021 10.8121L10.8016 9.95256Z" fill="url(#paint0_linear_5422_691)"/>
<defs>
<linearGradient id="paint0_linear_5422_691" x1="10.1416" y1="14.1916" x2="14.5248" y2="9.80836" gradientUnits="userSpaceOnUse">
<stop stop-color="#9945FF"/>
<stop offset="0.2" stop-color="#7962E7"/>
<stop offset="1" stop-color="#00D18C"/>
</linearGradient>
</defs>
</svg>
